<?xml version="1.0" standalone="no"?>
<!DOCTYPE svg PUBLIC "-//W3C//DTD SVG 20010904//EN"
 "http://www.w3.org/TR/2001/REC-SVG-20010904/DTD/svg10.dtd">
<svg version="1.0" xmlns="http://www.w3.org/2000/svg"
 width="256.000000pt" height="153.000000pt" viewBox="0 0 256.000000 153.000000"
 preserveAspectRatio="xMidYMid meet">
<metadata>
Created by potrace 1.10, written by Peter Selinger 2001-2011
</metadata>
<g transform="translate(0.000000,153.000000) scale(0.100000,-0.100000)"
fill="#7e7777" stroke="none">
<path d="M344 1497 c-2 -7 -3 -82 -2 -167 3 -147 4 -155 23 -155 19 0 20 8 23
143 l3 142 889 0 889 0 3 -142 c3 -135 4 -143 23 -143 19 0 20 7 20 165 l0
165 -933 3 c-757 2 -934 0 -938 -11z"/>
<path d="M35 1100 c-6 -9 11 -130 22 -160 3 -8 6 -24 7 -35 5 -58 30 -184 36
-180 3 2 4 -9 2 -26 -2 -17 0 -29 7 -29 6 0 8 -6 5 -13 -3 -8 18 -140 46 -293
27 -154 50 -283 50 -287 0 -3 15 -13 33 -22 29 -14 146 -15 1057 -13 l1025 3
103 513 c99 491 103 515 86 533 -17 19 -47 19 -1245 19 -762 0 -1230 -4 -1234
-10z m2447 -47 c-5 -10 -51 -231 -103 -490 l-94 -473 -985 -2 c-542 -2 -997
-2 -1013 0 -15 2 -27 9 -27 18 0 8 -4 14 -9 14 -4 0 -6 12 -3 26 3 19 1 25 -6
20 -8 -4 -10 -2 -6 8 7 19 -67 440 -78 444 -4 2 -6 8 -3 13 3 4 -10 97 -30
205 -19 109 -35 203 -35 211 0 11 207 13 1198 16 658 1 1198 3 1200 5 1 1 -1
-6 -6 -15z m25 -10 c-4 -3 -7 0 -7 7 0 7 3 10 7 7 3 -4 3 -10 0 -14z"/>
<path d="M1230 673 c0 -5 -13 -8 -30 -5 -44 6 -163 -33 -199 -67 -107 -100 87
-202 354 -187 189 11 295 59 295 134 0 49 -93 105 -198 119 -79 11 -222 15
-222 6z m347 -90 c-4 -3 -10 -3 -14 0 -3 4 0 7 7 7 7 0 10 -3 7 -7z"/>
</g>
</svg>
